<svg width="32" height="32" viewBox="0 0 32 32" fill="none" xmlns="http://www.w3.org/2000/svg">
<g clip-path="url(#clip0_1347_8435)">
<path fill-rule="evenodd" clip-rule="evenodd" d="M8 6.66667C7.64638 6.66667 7.30724 6.80714 7.05719 7.05719C6.80714 7.30724 6.66667 7.64638 6.66667 8V24C6.66667 24.3536 6.80714 24.6928 7.05719 24.9428C7.30724 25.1929 7.64638 25.3333 8 25.3333H24C24.3536 25.3333 24.6928 25.1929 24.9428 24.9428C25.1929 24.6928 25.3333 24.3536 25.3333 24V8C25.3333 7.64638 25.1929 7.30724 24.9428 7.05719C24.6928 6.80714 24.3536 6.66667 24 6.66667H8ZM5.17157 5.17157C5.92172 4.42143 6.93913 4 8 4H24C25.0609 4 26.0783 4.42143 26.8284 5.17157C27.5786 5.92172 28 6.93913 28 8V24C28 25.0609 27.5786 26.0783 26.8284 26.8284C26.0783 27.5786 25.0609 28 24 28H8C6.93913 28 5.92172 27.5786 5.17157 26.8284C4.42143 26.0783 4 25.0609 4 24V8C4 6.93913 4.42143 5.92172 5.17157 5.17157ZM10.6667 9.33333C11.403 9.33333 12 9.93029 12 10.6667V10.68C12 11.4164 11.403 12.0133 10.6667 12.0133C9.93029 12.0133 9.33333 11.4164 9.33333 10.68V10.6667C9.33333 9.93029 9.93029 9.33333 10.6667 9.33333ZM10.6667 13.3333C11.403 13.3333 12 13.9303 12 14.6667V21.3333C12 22.0697 11.403 22.6667 10.6667 22.6667C9.93029 22.6667 9.33333 22.0697 9.33333 21.3333V14.6667C9.33333 13.9303 9.93029 13.3333 10.6667 13.3333ZM16 13.3333C16.7364 13.3333 17.3333 13.9303 17.3333 14.6667V21.3333C17.3333 22.0697 16.7364 22.6667 16 22.6667C15.2636 22.6667 14.6667 22.0697 14.6667 21.3333V14.6667C14.6667 13.9303 15.2636 13.3333 16 13.3333Z" fill="#080808"/>
<path fill-rule="evenodd" clip-rule="evenodd" d="M15.8382 14.5049C16.5884 13.7548 17.6058 13.3333 18.6667 13.3333C19.7275 13.3333 20.7449 13.7548 21.4951 14.5049C22.2452 15.2551 22.6667 16.2725 22.6667 17.3333V21.3333C22.6667 22.0697 22.0697 22.6667 21.3333 22.6667C20.597 22.6667 20 22.0697 20 21.3333V17.3333C20 16.9797 19.8595 16.6406 19.6095 16.3905C19.3594 16.1405 19.0203 16 18.6667 16C18.313 16 17.9739 16.1405 17.7239 16.3905C17.4738 16.6406 17.3333 16.9797 17.3333 17.3333C17.3333 18.0697 16.7364 18.6667 16 18.6667C15.2636 18.6667 14.6667 18.0697 14.6667 17.3333C14.6667 16.2725 15.0881 15.2551 15.8382 14.5049Z" fill="#080808"/>
</g>
<defs>
<clipPath id="clip0_1347_8435">
<rect width="32" height="32" fill="white"/>
</clipPath>
</defs>
</svg>
